<?xml version="1.0" encoding="UTF-8" standalone="no"?>
<!DOCTYPE svg PUBLIC "-//W3C//DTD SVG 1.1//EN"
 "http://www.w3.org/Graphics/SVG/1.1/DTD/svg11.dtd">
<!-- Generated by graphviz version 2.43.0 (0)
 -->
<!-- Title: G Pages: 1 -->
<svg width="483pt" height="155pt"
 viewBox="0.00 0.00 483.00 155.00" xmlns="http://www.w3.org/2000/svg" xmlns:xlink="http://www.w3.org/1999/xlink">
<g id="graph0" class="graph" transform="scale(1 1) rotate(0) translate(4 151)">
<title>G</title>
<polygon fill="white" stroke="transparent" points="-4,4 -4,-151 479,-151 479,4 -4,4"/>
<!-- 4 -->
<g id="node1" class="node">
<title>4</title>
<ellipse fill="none" stroke="black" cx="341.5" cy="-77" rx="18" ry="18"/>
<text text-anchor="middle" x="341.5" y="-73.3" font-family="Times,serif" font-size="14.00">4</text>
</g>
<!-- 5 -->
<g id="node2" class="node">
<title>5</title>
<ellipse fill="none" stroke="black" cx="457" cy="-108" rx="18" ry="18"/>
<text text-anchor="middle" x="457" y="-104.3" font-family="Times,serif" font-size="14.00">5</text>
</g>
<!-- 4&#45;&gt;5 -->
<g id="edge1" class="edge">
<title>4&#45;&gt;5</title>
<path fill="none" stroke="black" d="M359.25,-81.57C377.79,-86.64 407.94,-94.87 429.66,-100.81"/>
<polygon fill="black" stroke="black" points="428.98,-104.25 439.55,-103.51 430.83,-97.5 428.98,-104.25"/>
<text text-anchor="middle" x="400.5" y="-100.8" font-family="Times,serif" font-size="14.00">13/14</text>
</g>
<!-- 1 -->
<g id="node3" class="node">
<title>1</title>
<ellipse fill="none" stroke="black" cx="235" cy="-129" rx="18" ry="18"/>
<text text-anchor="middle" x="235" y="-125.3" font-family="Times,serif" font-size="14.00">1</text>
</g>
<!-- 1&#45;&gt;4 -->
<g id="edge3" class="edge">
<title>1&#45;&gt;4</title>
<path fill="none" stroke="black" d="M250.28,-118.75C256.48,-114.53 263.94,-109.75 271,-106 285.08,-98.52 301.51,-91.59 314.86,-86.38"/>
<polygon fill="black" stroke="black" points="316.28,-89.58 324.38,-82.75 313.79,-83.04 316.28,-89.58"/>
<text text-anchor="middle" x="287" y="-109.8" font-family="Times,serif" font-size="14.00">0/1</text>
</g>
<!-- 1&#45;&gt;5 -->
<g id="edge2" class="edge">
<title>1&#45;&gt;5</title>
<path fill="none" stroke="black" d="M253.18,-128.68C285.98,-127.87 359.69,-125.1 421,-116 423.74,-115.59 426.58,-115.09 429.41,-114.53"/>
<polygon fill="black" stroke="black" points="430.34,-117.91 439.37,-112.36 428.85,-111.07 430.34,-117.91"/>
<text text-anchor="middle" x="341.5" y="-128.8" font-family="Times,serif" font-size="14.00">12/21</text>
</g>
<!-- 3 -->
<g id="node4" class="node">
<title>3</title>
<ellipse fill="none" stroke="black" cx="131" cy="-72" rx="18" ry="18"/>
<text text-anchor="middle" x="131" y="-68.3" font-family="Times,serif" font-size="14.00">3</text>
</g>
<!-- 3&#45;&gt;4 -->
<g id="edge6" class="edge">
<title>3&#45;&gt;4</title>
<path fill="none" stroke="black" d="M149.06,-72.41C185.2,-73.28 269.69,-75.3 313.33,-76.35"/>
<polygon fill="black" stroke="black" points="313.41,-79.85 323.49,-76.59 313.58,-72.85 313.41,-79.85"/>
<text text-anchor="middle" x="235" y="-77.8" font-family="Times,serif" font-size="14.00">5/5</text>
</g>
<!-- 3&#45;&gt;1 -->
<g id="edge4" class="edge">
<title>3&#45;&gt;1</title>
<path fill="none" stroke="black" d="M147.7,-79.35C161.44,-85.93 181.85,-96.05 199,-106 203,-108.32 207.17,-110.91 211.19,-113.48"/>
<polygon fill="black" stroke="black" points="209.31,-116.44 219.58,-119.01 213.15,-110.59 209.31,-116.44"/>
<text text-anchor="middle" x="183" y="-109.8" font-family="Times,serif" font-size="14.00">5/11</text>
</g>
<!-- 2 -->
<g id="node5" class="node">
<title>2</title>
<ellipse fill="none" stroke="black" cx="235" cy="-18" rx="18" ry="18"/>
<text text-anchor="middle" x="235" y="-14.3" font-family="Times,serif" font-size="14.00">2</text>
</g>
<!-- 3&#45;&gt;2 -->
<g id="edge5" class="edge">
<title>3&#45;&gt;2</title>
<path fill="none" stroke="black" d="M144.52,-59.87C150.87,-54.19 158.94,-47.66 167,-43 179.72,-35.64 195,-29.74 207.75,-25.53"/>
<polygon fill="black" stroke="black" points="208.85,-28.85 217.34,-22.51 206.75,-22.17 208.85,-28.85"/>
<text text-anchor="middle" x="183" y="-46.8" font-family="Times,serif" font-size="14.00">0/2</text>
</g>
<!-- 2&#45;&gt;4 -->
<g id="edge7" class="edge">
<title>2&#45;&gt;4</title>
<path fill="none" stroke="black" d="M252.77,-22.33C266.82,-26.4 287.09,-33.32 303,-43 309.35,-46.87 315.61,-51.9 321.13,-56.89"/>
<polygon fill="black" stroke="black" points="318.98,-59.68 328.63,-64.06 323.81,-54.62 318.98,-59.68"/>
<text text-anchor="middle" x="287" y="-46.8" font-family="Times,serif" font-size="14.00">8/12</text>
</g>
<!-- 0 -->
<g id="node6" class="node">
<title>0</title>
<ellipse fill="none" stroke="black" cx="18" cy="-72" rx="18" ry="18"/>
<text text-anchor="middle" x="18" y="-68.3" font-family="Times,serif" font-size="14.00">0</text>
</g>
<!-- 0&#45;&gt;1 -->
<g id="edge8" class="edge">
<title>0&#45;&gt;1</title>
<path fill="none" stroke="black" d="M33.95,-81.14C40.02,-84.57 47.19,-88.29 54,-91 102.29,-110.2 115.96,-111.23 167,-121 179.99,-123.49 194.56,-125.34 206.78,-126.63"/>
<polygon fill="black" stroke="black" points="206.53,-130.12 216.82,-127.62 207.22,-123.15 206.53,-130.12"/>
<text text-anchor="middle" x="131" y="-120.8" font-family="Times,serif" font-size="14.00">7/7</text>
</g>
<!-- 0&#45;&gt;3 -->
<g id="edge9" class="edge">
<title>0&#45;&gt;3</title>
<path fill="none" stroke="black" d="M36.34,-72C54.1,-72 81.96,-72 102.68,-72"/>
<polygon fill="black" stroke="black" points="102.78,-75.5 112.78,-72 102.78,-68.5 102.78,-75.5"/>
<text text-anchor="middle" x="74.5" y="-75.8" font-family="Times,serif" font-size="14.00">10/10</text>
</g>
<!-- 0&#45;&gt;2 -->
<g id="edge10" class="edge">
<title>0&#45;&gt;2</title>
<path fill="none" stroke="black" d="M34.07,-63.43C52.19,-53.57 83.8,-37.75 113,-30 144.46,-21.65 181.91,-19 206.73,-18.22"/>
<polygon fill="black" stroke="black" points="206.95,-21.72 216.86,-17.98 206.78,-14.72 206.95,-21.72"/>
<text text-anchor="middle" x="131" y="-33.8" font-family="Times,serif" font-size="14.00">8/8</text>
</g>
</g>
</svg>
