<?xml version="1.0" encoding="UTF-8" standalone="no"?>
<!DOCTYPE svg PUBLIC "-//W3C//DTD SVG 1.1//EN"
 "http://www.w3.org/Graphics/SVG/1.1/DTD/svg11.dtd">
<!-- Generated by graphviz version 2.43.0 (0)
 -->
<!-- Title: G Pages: 1 -->
<svg width="465pt" height="155pt"
 viewBox="0.00 0.00 465.00 155.00" xmlns="http://www.w3.org/2000/svg" xmlns:xlink="http://www.w3.org/1999/xlink">
<g id="graph0" class="graph" transform="scale(1 1) rotate(0) translate(4 151)">
<title>G</title>
<polygon fill="white" stroke="transparent" points="-4,4 -4,-151 461,-151 461,4 -4,4"/>
<!-- 4 -->
<g id="node1" class="node">
<title>4</title>
<ellipse fill="none" stroke="black" cx="332.5" cy="-77" rx="18" ry="18"/>
<text text-anchor="middle" x="332.5" y="-73.3" font-family="Times,serif" font-size="14.00">4</text>
</g>
<!-- 5 -->
<g id="node2" class="node">
<title>5</title>
<ellipse fill="none" stroke="black" cx="439" cy="-108" rx="18" ry="18"/>
<text text-anchor="middle" x="439" y="-104.3" font-family="Times,serif" font-size="14.00">5</text>
</g>
<!-- 4&#45;&gt;5 -->
<g id="edge1" class="edge">
<title>4&#45;&gt;5</title>
<path fill="none" stroke="black" d="M350.29,-81.98C366.92,-86.91 392.62,-94.54 411.91,-100.26"/>
<polygon fill="black" stroke="black" points="411.01,-103.65 421.6,-103.13 413,-96.93 411.01,-103.65"/>
<text text-anchor="middle" x="387" y="-100.8" font-family="Times,serif" font-size="14.00">1/14</text>
</g>
<!-- 1 -->
<g id="node3" class="node">
<title>1</title>
<ellipse fill="none" stroke="black" cx="226" cy="-129" rx="18" ry="18"/>
<text text-anchor="middle" x="226" y="-125.3" font-family="Times,serif" font-size="14.00">1</text>
</g>
<!-- 1&#45;&gt;4 -->
<g id="edge3" class="edge">
<title>1&#45;&gt;4</title>
<path fill="none" stroke="black" d="M241.28,-118.75C247.48,-114.53 254.94,-109.75 262,-106 276.08,-98.52 292.51,-91.59 305.86,-86.38"/>
<polygon fill="black" stroke="black" points="307.28,-89.58 315.38,-82.75 304.79,-83.04 307.28,-89.58"/>
<text text-anchor="middle" x="278" y="-109.8" font-family="Times,serif" font-size="14.00">1/1</text>
</g>
<!-- 1&#45;&gt;5 -->
<g id="edge2" class="edge">
<title>1&#45;&gt;5</title>
<path fill="none" stroke="black" d="M244.09,-128.59C275.64,-127.65 345.13,-124.7 403,-116 405.74,-115.59 408.58,-115.08 411.4,-114.52"/>
<polygon fill="black" stroke="black" points="412.34,-117.9 421.36,-112.34 410.85,-111.06 412.34,-117.9"/>
<text text-anchor="middle" x="332.5" y="-128.8" font-family="Times,serif" font-size="14.00">21/21</text>
</g>
<!-- 3 -->
<g id="node4" class="node">
<title>3</title>
<ellipse fill="none" stroke="black" cx="122" cy="-72" rx="18" ry="18"/>
<text text-anchor="middle" x="122" y="-68.3" font-family="Times,serif" font-size="14.00">3</text>
</g>
<!-- 3&#45;&gt;4 -->
<g id="edge6" class="edge">
<title>3&#45;&gt;4</title>
<path fill="none" stroke="black" d="M140.06,-72.41C176.2,-73.28 260.69,-75.3 304.33,-76.35"/>
<polygon fill="black" stroke="black" points="304.41,-79.85 314.49,-76.59 304.58,-72.85 304.41,-79.85"/>
<text text-anchor="middle" x="226" y="-77.8" font-family="Times,serif" font-size="14.00">0/5</text>
</g>
<!-- 3&#45;&gt;1 -->
<g id="edge4" class="edge">
<title>3&#45;&gt;1</title>
<path fill="none" stroke="black" d="M138.7,-79.35C152.44,-85.93 172.85,-96.05 190,-106 194,-108.32 198.17,-110.91 202.19,-113.48"/>
<polygon fill="black" stroke="black" points="200.31,-116.44 210.58,-119.01 204.15,-110.59 200.31,-116.44"/>
<text text-anchor="middle" x="174" y="-109.8" font-family="Times,serif" font-size="14.00">0/11</text>
</g>
<!-- 2 -->
<g id="node5" class="node">
<title>2</title>
<ellipse fill="none" stroke="black" cx="226" cy="-18" rx="18" ry="18"/>
<text text-anchor="middle" x="226" y="-14.3" font-family="Times,serif" font-size="14.00">2</text>
</g>
<!-- 3&#45;&gt;2 -->
<g id="edge5" class="edge">
<title>3&#45;&gt;2</title>
<path fill="none" stroke="black" d="M135.52,-59.87C141.87,-54.19 149.94,-47.66 158,-43 170.72,-35.64 186,-29.74 198.75,-25.53"/>
<polygon fill="black" stroke="black" points="199.85,-28.85 208.34,-22.51 197.75,-22.17 199.85,-28.85"/>
<text text-anchor="middle" x="174" y="-46.8" font-family="Times,serif" font-size="14.00">0/2</text>
</g>
<!-- 2&#45;&gt;4 -->
<g id="edge7" class="edge">
<title>2&#45;&gt;4</title>
<path fill="none" stroke="black" d="M243.77,-22.33C257.82,-26.4 278.09,-33.32 294,-43 300.35,-46.87 306.61,-51.9 312.13,-56.89"/>
<polygon fill="black" stroke="black" points="309.98,-59.68 319.63,-64.06 314.81,-54.62 309.98,-59.68"/>
<text text-anchor="middle" x="278" y="-46.8" font-family="Times,serif" font-size="14.00">0/12</text>
</g>
<!-- 0 -->
<g id="node6" class="node">
<title>0</title>
<ellipse fill="none" stroke="black" cx="18" cy="-72" rx="18" ry="18"/>
<text text-anchor="middle" x="18" y="-68.3" font-family="Times,serif" font-size="14.00">0</text>
</g>
<!-- 0&#45;&gt;1 -->
<g id="edge8" class="edge">
<title>0&#45;&gt;1</title>
<path fill="none" stroke="black" d="M33.98,-81.06C40.05,-84.48 47.22,-88.22 54,-91 98.51,-109.25 110.85,-111.45 158,-121 170.97,-123.63 185.53,-125.49 197.76,-126.76"/>
<polygon fill="black" stroke="black" points="197.52,-130.25 207.8,-127.72 198.18,-123.28 197.52,-130.25"/>
<text text-anchor="middle" x="122" y="-120.8" font-family="Times,serif" font-size="14.00">0/7</text>
</g>
<!-- 0&#45;&gt;3 -->
<g id="edge9" class="edge">
<title>0&#45;&gt;3</title>
<path fill="none" stroke="black" d="M36.3,-72C52.08,-72 75.64,-72 93.91,-72"/>
<polygon fill="black" stroke="black" points="93.95,-75.5 103.95,-72 93.95,-68.5 93.95,-75.5"/>
<text text-anchor="middle" x="70" y="-75.8" font-family="Times,serif" font-size="14.00">0/10</text>
</g>
<!-- 0&#45;&gt;2 -->
<g id="edge10" class="edge">
<title>0&#45;&gt;2</title>
<path fill="none" stroke="black" d="M33.69,-62.69C50.13,-52.76 77.89,-37.48 104,-30 135.29,-21.04 172.78,-18.52 197.65,-17.93"/>
<polygon fill="black" stroke="black" points="197.86,-21.43 207.81,-17.78 197.76,-14.43 197.86,-21.43"/>
<text text-anchor="middle" x="122" y="-33.8" font-family="Times,serif" font-size="14.00">0/8</text>
</g>
</g>
</svg>
